HIERARCHY
ROOT Hips
{
	OFFSET 0.000000 103.266502 0.000000
	CHANNELS 6 Xposition Yposition Zposition Xrotation Yrotation Zrotation 
	JOINT Spine
	{
		OFFSET -0.002400 12.777504 0.315300
		CHANNELS 3 Xrotation Yrotation Zrotation
		JOINT Spine1
		{
			OFFSET -0.002067 5.816869 0.032633
			CHANNELS 3 Xrotation Yrotation Zrotation
			JOINT Spine1_split
			{
				OFFSET -0.002067 5.816869 0.032633
				CHANNELS 3 Xrotation Yrotation Zrotation
				JOINT Spine2
				{
					OFFSET -0.002067 5.816869 0.032633
					CHANNELS 3 Xrotation Yrotation Zrotation
					JOINT Neck
					{
						OFFSET -0.003700 21.199493 -0.826900
						CHANNELS 3 Xrotation Yrotation Zrotation
						JOINT Head
						{
							OFFSET 0.000000 20.442200 4.834800
							CHANNELS 3 Xrotation Yrotation Zrotation
							JOINT HeadTop_End
							{
								OFFSET 0.000000 34.668396 4.968400
								CHANNELS 3 Xrotation Yrotation Zrotation
								End Site
								{
									OFFSET 0.000000 0.000000 0.000000
								}
							}
						}
					}
					JOINT LeftShoulder
					{
						OFFSET 3.288150 8.794197 -1.372250
						CHANNELS 3 Xrotation Yrotation Zrotation
						JOINT LeftShoulder_split
						{
							OFFSET 3.288150 8.794197 -1.372250
							CHANNELS 3 Xrotation Yrotation Zrotation
							JOINT LeftArm
							{
								OFFSET 11.953299 -2.279007 -0.146200
								CHANNELS 3 Xrotation Yrotation Zrotation
								JOINT LeftForeArm
								{
									OFFSET 18.448900 0.000000 0.000000
									CHANNELS 3 Xrotation Yrotation Zrotation
									JOINT LeftHand
									{
										OFFSET 29.527798 0.000000 0.000000
										CHANNELS 3 Xrotation Yrotation Zrotation
										JOINT LeftHandThumb1
										{
											OFFSET 10.739754 -2.369614 9.225399
											CHANNELS 3 Xrotation Yrotation Zrotation
											JOINT LeftHandThumb2
											{
												OFFSET 4.926170 -2.844131 2.844125
												CHANNELS 3 Xrotation Yrotation Zrotation
												JOINT LeftHandThumb3
												{
													OFFSET 4.614891 -2.664413 2.664409
													CHANNELS 3 Xrotation Yrotation Zrotation
													JOINT LeftHandThumb4
													{
														OFFSET 4.432465 -2.559082 2.559083
														CHANNELS 3 Xrotation Yrotation Zrotation
														End Site
														{
															OFFSET 0.000000 0.000000 0.000000
														}
													}
												}
											}
										}
										JOINT LeftHandIndex1
										{
											OFFSET 26.467674 0.187653 6.405298
											CHANNELS 3 Xrotation Yrotation Zrotation
											JOINT LeftHandIndex2
											{
												OFFSET 8.792900 0.000000 0.000000
												CHANNELS 3 Xrotation Yrotation Zrotation
												JOINT LeftHandIndex3
												{
													OFFSET 10.075203 0.000000 0.000000
													CHANNELS 3 Xrotation Yrotation Zrotation
													End Site
													{
														OFFSET 0.000000 0.000000 0.000000
													}
												}
											}
										}
										JOINT LeftHandMiddle1
										{
											OFFSET 25.764404 0.000000 0.000000
											CHANNELS 3 Xrotation Yrotation Zrotation
											JOINT LeftHandMiddle2
											{
												OFFSET 9.393974 0.000000 0.000000
												CHANNELS 3 Xrotation Yrotation Zrotation
												JOINT LeftHandMiddle3
												{
													OFFSET 10.771950 0.000000 0.000000
													CHANNELS 3 Xrotation Yrotation Zrotation
													End Site
													{
														OFFSET 0.000000 0.000000 0.000000
													}
												}
											}
										}
										JOINT LeftHandRing1
										{
											OFFSET 24.660927 0.144547 -6.225808
											CHANNELS 3 Xrotation Yrotation Zrotation
											JOINT LeftHandRing2
											{
												OFFSET 9.393799 0.000000 0.000000
												CHANNELS 3 Xrotation Yrotation Zrotation
												JOINT LeftHandRing3
												{
													OFFSET 9.928497 0.000000 0.000000
													CHANNELS 3 Xrotation Yrotation Zrotation
													End Site
													{
														OFFSET 0.000000 0.000000 0.000000
													}
												}
											}
										}
										JOINT LeftHandPinky1
										{
											OFFSET 23.655350 0.125290 -12.815412
											CHANNELS 3 Xrotation Yrotation Zrotation
											JOINT LeftHandPinky2
											{
												OFFSET 8.425102 0.000000 0.000000
												CHANNELS 3 Xrotation Yrotation Zrotation
												JOINT LeftHandPinky3
												{
													OFFSET 8.147003 0.000000 0.000000
													CHANNELS 3 Xrotation Yrotation Zrotation
													End Site
													{
														OFFSET 0.000000 0.000000 0.000000
													}
												}
											}
										}
									}
								}
							}
						}
					}
					JOINT RightShoulder
					{
						OFFSET -3.249400 8.794197 -1.372250
						CHANNELS 3 Xrotation Yrotation Zrotation
						JOINT RightShoulder_split
						{
							OFFSET -3.249400 8.794197 -1.372250
							CHANNELS 3 Xrotation Yrotation Zrotation
							JOINT RightArm
							{
								OFFSET -11.953299 -2.279007 -0.146200
								CHANNELS 3 Xrotation Yrotation Zrotation
								JOINT RightForeArm
								{
									OFFSET -18.448900 0.000000 0.000000
									CHANNELS 3 Xrotation Yrotation Zrotation
									JOINT RightHand
									{
										OFFSET -29.527802 0.000000 0.000000
										CHANNELS 3 Xrotation Yrotation Zrotation
										JOINT RightHandThumb1
										{
											OFFSET -10.739754 -2.369614 9.225399
											CHANNELS 3 Xrotation Yrotation Zrotation
											JOINT RightHandThumb2
											{
												OFFSET -4.926170 -2.844131 2.844125
												CHANNELS 3 Xrotation Yrotation Zrotation
												JOINT RightHandThumb3
												{
													OFFSET -4.614891 -2.664413 2.664409
													CHANNELS 3 Xrotation Yrotation Zrotation
													JOINT RightHandThumb4
													{
														OFFSET -4.432465 -2.559082 2.559083
														CHANNELS 3 Xrotation Yrotation Zrotation
														End Site
														{
															OFFSET 0.000000 0.000000 0.000000
														}
													}
												}
											}
										}
										JOINT RightHandIndex1
										{
											OFFSET -26.467674 0.187653 6.405298
											CHANNELS 3 Xrotation Yrotation Zrotation
											JOINT RightHandIndex2
											{
												OFFSET -8.792900 0.000000 0.000000
												CHANNELS 3 Xrotation Yrotation Zrotation
												JOINT RightHandIndex3
												{
													OFFSET -10.075203 0.000000 0.000000
													CHANNELS 3 Xrotation Yrotation Zrotation
													End Site
													{
														OFFSET 0.000000 0.000000 0.000000
													}
												}
											}
										}
										JOINT RightHandMiddle1
										{
											OFFSET -25.764404 0.000000 0.000000
											CHANNELS 3 Xrotation Yrotation Zrotation
											JOINT RightHandMiddle2
											{
												OFFSET -9.393974 0.000000 0.000000
												CHANNELS 3 Xrotation Yrotation Zrotation
												JOINT RightHandMiddle3
												{
													OFFSET -10.771950 0.000000 0.000000
													CHANNELS 3 Xrotation Yrotation Zrotation
													End Site
													{
														OFFSET 0.000000 0.000000 0.000000
													}
												}
											}
										}
										JOINT RightHandRing1
										{
											OFFSET -24.660927 0.144547 -6.225808
											CHANNELS 3 Xrotation Yrotation Zrotation
											JOINT RightHandRing2
											{
												OFFSET -9.393799 0.000000 0.000000
												CHANNELS 3 Xrotation Yrotation Zrotation
												JOINT RightHandRing3
												{
													OFFSET -9.928497 0.000000 0.000000
													CHANNELS 3 Xrotation Yrotation Zrotation
													End Site
													{
														OFFSET 0.000000 0.000000 0.000000
													}
												}
											}
										}
										JOINT RightHandPinky1
										{
											OFFSET -23.655350 0.125290 -12.815412
											CHANNELS 3 Xrotation Yrotation Zrotation
											JOINT RightHandPinky2
											{
												OFFSET -8.425102 0.000000 0.000000
												CHANNELS 3 Xrotation Yrotation Zrotation
												JOINT RightHandPinky3
												{
													OFFSET -8.147003 0.000000 0.000000
													CHANNELS 3 Xrotation Yrotation Zrotation
													End Site
													{
														OFFSET 0.000000 0.000000 0.000000
													}
												}
											}
										}
									}
								}
							}
						}
					}
				}
			}
		}
	}
	JOINT LeftUpLeg
	{
		OFFSET 11.394100 -6.187798 -0.413800
		CHANNELS 3 Xrotation Yrotation Zrotation
		JOINT LeftLeg
		{
			OFFSET 0.430247 -32.302673 3.732800
			CHANNELS 3 Xrotation Yrotation Zrotation
			JOINT LeftFoot
			{
				OFFSET -0.430247 -48.264931 -6.423300
				CHANNELS 3 Xrotation Yrotation Zrotation
				JOINT LeftToeBase
				{
					OFFSET 4.230900 -16.068199 23.438400
					CHANNELS 3 Xrotation Yrotation Zrotation
					JOINT LeftToe_End
					{
						OFFSET 4.510700 0.695400 19.974600
						CHANNELS 3 Xrotation Yrotation Zrotation
						End Site
						{
							OFFSET 0.000000 0.000000 0.000000
						}
					}
				}
			}
		}
	}
	JOINT RightUpLeg
	{
		OFFSET -11.333700 -6.187798 -0.413800
		CHANNELS 3 Xrotation Yrotation Zrotation
		JOINT RightLeg
		{
			OFFSET -0.430392 -32.302628 3.733000
			CHANNELS 3 Xrotation Yrotation Zrotation
			JOINT RightFoot
			{
				OFFSET 0.430392 -48.264973 -6.423500
				CHANNELS 3 Xrotation Yrotation Zrotation
				JOINT RightToeBase
				{
					OFFSET -4.230900 -16.068199 23.438400
					CHANNELS 3 Xrotation Yrotation Zrotation
					JOINT RightToe_End
					{
						OFFSET -4.510700 0.695400 19.974600
						CHANNELS 3 Xrotation Yrotation Zrotation
						End Site
						{
							OFFSET 0.000000 0.000000 0.000000
						}
					}
				}
			}
		}
	}
}
MOTION
Frames: 5
Frame Time: 0.016667
-1.407264 83.287285 0.869759 7.173162 -59.148345 0.365314 4.907785 10.813765 0.446764 6.079588 5.798314 -0.521033 0.000000 0.000000 0.000000 5.085130 16.136073 1.189174 6.289639 5.421249 -4.908954 -11.393626 17.889736 5.359089 -0.000000 -0.000000 -0.000001 3.544247 4.756017 -11.623023 0.000000 0.000000 0.000000 -54.038852 -33.116418 -50.381559 -0.000798 -81.882350 -0.000793 -58.768389 25.992630 38.870327 -14.557457 10.837956 12.229975 0.749570 -4.257782 13.305522 -10.783736 -23.179382 -4.132414 0.000000 0.000001 -0.000002 -0.809531 2.578178 -31.496434 3.095903 5.163766 -61.866972 -0.000000 0.000000 -0.000001 -2.430837 1.729219 -41.460925 2.952363 5.084726 -60.259945 0.000000 0.000000 0.000000 -6.054119 -0.166579 -49.857574 3.046250 5.137030 -61.313952 0.000000 -0.000000 0.000003 -8.298293 -6.522664 -38.520163 2.848774 5.024384 -59.084415 0.000000 -0.000000 0.000001 -14.733707 2.115973 -4.463090 0.000000 0.000000 0.000000 72.337536 138.834031 -52.653498 0.000018 29.080705 -0.000028 -49.752450 -7.371312 -31.498722 8.377125 -4.904139 11.022003 21.620187 -18.183907 -18.379213 -0.702890 -49.821217 -32.535169 0.000001 0.000000 -0.000001 0.558920 -4.406578 25.436661 1.653035 -3.560345 49.799097 -0.000001 0.000000 -0.000002 10.969811 -12.875549 52.800832 6.387572 -4.324401 111.833686 -0.000001 0.000001 -0.000003 3.705082 -7.151335 57.622440 5.328207 -4.608663 98.293409 -0.000000 0.000001 0.000003 0.474810 -5.172994 58.987672 3.194312 -4.421936 71.674161 0.000001 -0.000000 0.000003 -55.263761 -17.330852 30.261136 35.370480 -7.362231 -0.227850 25.081966 0.199796 -5.669381 -1.075252 0.052324 -2.786001 -0.000000 0.000001 -0.000001 -60.902085 0.168383 -15.754646 65.557897 0.342518 -0.099247 0.161586 -0.503611 9.688587 -10.353138 -0.000016 -0.000003 -0.000000 -0.000003 -0.000000 
-1.721335 84.481117 -3.396244 8.667675 -60.078726 1.188419 5.034911 10.684652 0.948974 6.266321 5.663335 -0.193638 0.000000 0.000000 0.000000 5.219009 15.988009 1.524876 6.117321 5.473306 -4.875342 -11.907631 18.231202 4.903863 0.000000 -0.000000 0.000001 3.410885 4.228985 -11.245754 0.000000 0.000000 0.000000 -53.679734 -32.244582 -50.209602 0.000839 -82.808278 0.000875 -57.769972 25.806922 38.829100 -14.557455 10.837955 12.229975 0.749569 -4.257777 13.305522 -10.783733 -23.179381 -4.132415 0.000001 0.000001 -0.000000 -0.809532 2.578178 -31.496437 3.095900 5.163765 -61.866966 0.000000 -0.000000 0.000003 -2.430837 1.729219 -41.460928 2.952361 5.084726 -60.259945 0.000000 0.000000 -0.000002 -6.054118 -0.166579 -49.857567 3.046252 5.137030 -61.313952 -0.000000 0.000000 0.000002 -8.298295 -6.522666 -38.520163 2.848774 5.024384 -59.084422 -0.000000 -0.000000 0.000001 -14.874837 3.395347 -4.575094 0.000000 0.000000 0.000000 74.932428 137.222066 -55.175139 0.000001 32.460662 0.000002 -50.128592 -7.281827 -32.986071 8.377125 -4.904138 11.022003 21.620183 -18.183907 -18.379214 -0.702895 -49.821217 -32.535169 -0.000001 -0.000001 0.000001 0.558920 -4.406578 25.436661 1.653036 -3.560345 49.799097 -0.000000 0.000001 -0.000002 10.969811 -12.875550 52.800835 6.387574 -4.324401 111.833693 -0.000001 0.000001 -0.000001 3.705081 -7.151333 57.622447 5.328208 -4.608664 98.293409 0.000000 -0.000001 0.000001 0.474812 -5.172993 58.987672 3.194311 -4.421935 71.674168 -0.000000 0.000001 0.000000 -59.947935 -17.528009 26.689891 43.772247 -4.374407 -0.099491 18.895635 -0.250380 -5.784635 -0.000001 -0.000010 0.000001 0.000000 0.000002 -0.000001 -62.290670 -2.673036 -13.106761 63.242607 -0.113629 -0.064619 4.618267 -0.123372 10.204283 -9.522976 -0.000026 -0.000005 -0.000000 -0.000001 -0.000000 
-1.960874 85.920181 -7.725878 11.047606 -61.465282 2.801280 5.053133 10.684753 1.241268 6.308408 5.733785 0.124731 0.000000 0.000000 0.000000 5.204266 16.033849 1.859607 6.010203 5.497592 -4.746235 -12.496669 18.583674 4.459512 0.000001 -0.000000 -0.000001 3.342834 3.885602 -11.068015 0.000000 0.000000 0.000000 -52.875797 -31.812405 -49.380605 -0.000180 -83.745352 -0.000176 -57.807443 26.117735 39.098974 -14.557457 10.837957 12.229976 0.749569 -4.257778 13.305523 -10.783736 -23.179381 -4.132413 -0.000002 -0.000001 -0.000000 -0.809532 2.578180 -31.496441 3.095901 5.163765 -61.866972 0.000000 -0.000000 0.000002 -2.430837 1.729219 -41.460928 2.952358 5.084726 -60.259938 -0.000000 -0.000000 -0.000000 -6.054118 -0.166578 -49.857570 3.046250 5.137029 -61.313952 0.000000 -0.000001 0.000000 -8.298295 -6.522662 -38.520163 2.848775 5.024384 -59.084415 -0.000000 -0.000000 0.000002 -14.973895 4.793933 -4.441296 0.000000 0.000000 0.000000 77.819234 135.933223 -57.695687 0.000002 35.490032 -0.000008 -50.675223 -7.755471 -34.661731 8.377125 -4.904138 11.022004 21.620185 -18.183907 -18.379214 -0.702896 -49.821217 -32.535166 0.000000 0.000001 -0.000003 0.558922 -4.406578 25.436661 1.653037 -3.560344 49.799097 -0.000000 0.000000 0.000002 10.969811 -12.875550 52.800829 6.387574 -4.324399 111.833686 0.000000 -0.000001 0.000000 3.705081 -7.151334 57.622447 5.328206 -4.608662 98.293409 0.000000 -0.000000 0.000002 0.474811 -5.172992 58.987672 3.194311 -4.421935 71.674161 -0.000000 -0.000001 0.000001 -63.995929 -16.602747 23.013260 50.598902 -2.279920 -0.005082 13.791111 -0.476138 -6.465968 -0.790457 -0.000007 -0.000001 0.000000 0.000002 0.000002 -62.242865 -6.414407 -9.344172 59.477984 -0.816275 -0.150809 5.971359 0.747046 6.743692 -9.252482 -0.000003 -0.000003 -0.000000 -0.000001 -0.000000 
-2.184650 87.511719 -12.120550 14.337414 -63.234745 5.481155 5.010354 10.728207 1.159441 6.230975 6.000069 0.369753 0.000000 0.000000 0.000000 5.078934 16.267958 2.126721 5.962556 5.490730 -4.561725 -13.126859 18.849124 4.125949 -0.000000 0.000000 -0.000001 3.352115 3.739651 -11.139677 0.000000 0.000000 0.000000 -51.775884 -31.735412 -48.041522 0.000218 -84.599679 0.000283 -58.433853 26.314965 39.463505 -14.557457 10.837961 12.229972 0.749570 -4.257780 13.305524 -10.783733 -23.179381 -4.132415 -0.000001 -0.000001 -0.000000 -0.809532 2.578179 -31.496441 3.095900 5.163766 -61.866972 0.000000 -0.000000 -0.000001 -2.430838 1.729219 -41.460928 2.952361 5.084726 -60.259945 -0.000001 0.000001 -0.000001 -6.054119 -0.166578 -49.857577 3.046251 5.137029 -61.313952 0.000000 0.000000 0.000001 -8.298294 -6.522665 -38.520167 2.848775 5.024384 -59.084415 0.000000 -0.000000 0.000000 -15.042382 6.381668 -4.115084 0.000000 0.000000 0.000000 80.832967 134.974442 -60.173352 0.000015 38.062045 -0.000018 -50.934828 -8.384244 -36.240321 8.377124 -4.904139 11.022005 21.620187 -18.183907 -18.379216 -0.702893 -49.821213 -32.535172 0.000001 -0.000001 0.000003 0.558920 -4.406579 25.436663 1.653037 -3.560345 49.799097 -0.000000 -0.000001 0.000001 10.969811 -12.875549 52.800832 6.387572 -4.324399 111.833686 -0.000000 0.000001 0.000000 3.705084 -7.151334 57.622447 5.328206 -4.608665 98.293409 -0.000001 0.000000 0.000001 0.474810 -5.172994 58.987672 3.194311 -4.421935 71.674168 -0.000001 -0.000000 0.000002 -67.170990 -14.263546 19.739324 54.925110 -1.434499 0.039133 10.488626 -0.523506 -7.932093 -0.643212 0.000010 -0.000002 -0.000000 -0.000002 -0.000000 -61.783630 -9.115769 -5.939591 55.665502 -0.395879 -0.177319 5.695580 1.587633 7.964853 -8.663527 -0.000006 0.000003 -0.000000 -0.000001 -0.000001 
-2.435488 89.031647 -16.487101 18.243989 -65.223881 9.042226 4.960477 10.818810 0.802805 6.102151 6.417210 0.514765 0.000000 0.000000 0.000000 4.918147 16.654296 2.295245 5.970360 5.433335 -4.378249 -13.661109 18.875860 3.950047 0.000001 -0.000000 -0.000003 3.417889 3.714096 -11.398305 0.000000 0.000000 0.000000 -50.782354 -31.863580 -46.590284 0.000471 -85.111677 0.000453 -59.076724 26.217464 39.499086 -14.557454 10.837956 12.229977 0.749570 -4.257779 13.305521 -10.783734 -23.179381 -4.132413 -0.000000 -0.000000 0.000000 -0.809533 2.578180 -31.496441 3.095902 5.163763 -61.866972 0.000003 -0.000000 -0.000000 -2.430838 1.729219 -41.460922 2.952361 5.084726 -60.259945 0.000002 0.000001 -0.000002 -6.054118 -0.166577 -49.857567 3.046250 5.137030 -61.313952 0.000001 0.000001 -0.000003 -8.298294 -6.522663 -38.520163 2.848774 5.024384 -59.084422 0.000000 -0.000000 0.000000 -15.100655 8.148904 -3.712544 0.000000 0.000000 0.000000 83.712875 134.359711 -62.582824 0.000012 39.987527 -0.000019 -50.779383 -8.838710 -37.597794 8.377126 -4.904137 11.022007 21.620185 -18.183908 -18.379216 -0.702894 -49.821217 -32.535172 -0.000001 -0.000001 0.000001 0.558922 -4.406579 25.436661 1.653037 -3.560345 49.799097 -0.000001 0.000000 -0.000001 10.969815 -12.875550 52.800832 6.387576 -4.324397 111.833686 0.000000 0.000000 0.000000 3.705083 -7.151334 57.622447 5.328208 -4.608663 98.293409 -0.000001 -0.000000 0.000005 0.474813 -5.172993 58.987672 3.194312 -4.421937 71.674161 -0.000000 -0.000001 0.000000 -69.466569 -10.657065 17.180299 57.032899 -1.725867 0.035173 9.235025 -0.487030 -10.098095 -0.224709 -0.000003 0.000004 0.000000 0.000000 -0.000000 -61.609529 -10.243504 -3.845327 52.633486 0.400026 -0.128958 5.093337 2.157258 16.170951 -4.721441 0.000008 0.000002 -0.000000 0.000001 0.000001 
